<svg width="19" height="13" viewBox="0 0 19 13" fill="none" xmlns="http://www.w3.org/2000/svg">
<path d="M18.5863 2.03571C18.3669 1.2381 17.721 0.607143 16.9044 0.392857C15.4297 0 9.49453 0 9.49453 0C9.49453 0 3.55931 0.0119048 2.08465 0.404762C1.2681 0.619048 0.622173 1.25 0.402802 2.04762C-0.0481279 4.60714 -0.21875 8.5119 0.414989 10.9643C0.634361 11.7619 1.28029 12.3929 2.09684 12.6071C3.5715 13 9.50671 13 9.50671 13C9.50671 13 15.4419 13 16.9166 12.6071C17.7331 12.3929 18.3791 11.7619 18.5984 10.9643C19.0616 8.40476 19.2078 4.5 18.5863 2.03571Z" fill="white"/>
<path d="M7.60571 9.28627L12.5294 6.50056L7.60571 3.71484V9.28627Z" fill="#5E30D8"/>
</svg>
