<svg width="13" height="13" viewBox="0 0 13 13" fill="none" xmlns="http://www.w3.org/2000/svg">
<path d="M0 2C0 0.89543 0.895431 0 2 0H11C12.1046 0 13 0.895431 13 2V11C13 12.1046 12.1046 13 11 13H2C0.89543 13 0 12.1046 0 11V2Z" fill="white"/>
<path d="M9.10005 6.4998C9.10005 7.93574 7.93599 9.0998 6.50005 9.0998C5.06411 9.0998 3.90005 7.93574 3.90005 6.4998C3.90005 5.06386 5.06411 3.8998 6.50005 3.8998C7.93599 3.8998 9.10005 5.06386 9.10005 6.4998Z" fill="#5E30D8"/>
<path d="M3.90005 2.5998C3.90005 3.31777 3.31802 3.8998 2.60005 3.8998C1.88208 3.8998 1.30005 3.31777 1.30005 2.5998C1.30005 1.88183 1.88208 1.2998 2.60005 1.2998C3.31802 1.2998 3.90005 1.88183 3.90005 2.5998Z" fill="#5E30D8"/>
</svg>
