<svg width="157" height="23" viewBox="0 0 157 23" fill="none" xmlns="http://www.w3.org/2000/svg">
<path d="M107.438 11.817C107.777 13.1731 108.998 13.8511 110.964 13.8511C112.388 13.8511 113.405 13.4443 114.015 12.6984H119.913C119.1 16.2241 116.117 17.9869 110.964 17.9869C107.981 17.9869 105.675 17.3767 104.048 16.0885C102.489 14.8681 101.743 13.1053 101.743 10.8678C101.743 8.63043 102.489 6.86763 104.048 5.64722C105.608 4.35902 107.913 3.74882 110.964 3.74882C113.947 3.74882 116.252 4.35902 117.879 5.64722C119.439 6.86763 120.185 8.63043 120.185 10.8678C120.185 11.0034 120.185 11.139 120.185 11.3424L120.117 11.817H107.438ZM110.964 7.88463C109.201 7.88463 108.048 8.42703 107.574 9.51184H114.354C113.879 8.42703 112.727 7.88463 110.964 7.88463Z" fill="white"/>
<path d="M134.897 4.02002H140.389V17.7835H134.897V16.0885C133.609 17.3767 131.778 17.9869 129.405 17.9869C127.032 17.9869 125.134 17.3767 123.914 16.0885C122.693 14.8681 122.083 13.1053 122.083 10.8678C122.083 8.63043 122.693 6.86763 123.914 5.64722C125.202 4.35902 127.032 3.74882 129.405 3.74882C131.778 3.74882 133.677 4.35902 134.897 5.64722V4.02002ZM131.236 13.4443C133.677 13.4443 134.897 12.6306 134.897 10.9356C134.897 9.24064 133.677 8.42703 131.236 8.42703C128.795 8.42703 127.575 9.24064 127.575 10.9356C127.575 12.5628 128.795 13.4443 131.236 13.4443Z" fill="white"/>
<path d="M156.932 17.7157C155.915 17.9191 154.898 17.9869 153.746 17.9869C151.034 17.9869 149.067 17.5801 147.847 16.8343C146.559 16.0207 145.949 14.6647 145.949 12.6984V8.56263H142.762V4.02002H145.949V1.71481L151.44 0.562206V4.02002H156.932V8.63043H151.44V12.0882C151.44 12.6306 151.712 12.9696 152.254 13.173C152.729 13.3765 153.407 13.4443 154.491 13.4443C155.305 13.4443 156.119 13.3765 157 13.173V17.7157H156.932Z" fill="white"/>
<path d="M25.3998 5.71503C26.688 4.42682 28.5186 3.81662 30.8916 3.81662C33.2646 3.81662 35.163 4.42682 36.3834 5.71503C37.6038 6.93543 38.214 8.69824 38.214 10.9356C38.214 13.1731 37.6038 14.9359 36.3834 16.1563C35.0952 17.4445 33.2646 18.0547 30.8916 18.0547C28.5186 18.0547 26.6202 17.4445 25.3998 16.1563V22.3939H19.908V4.02002H25.3998V5.71503ZM32.7222 10.8678C32.7222 9.17284 31.5018 8.35924 29.061 8.35924C26.6202 8.35924 25.3998 9.17284 25.3998 10.8678C25.3998 12.5629 26.6202 13.3765 29.061 13.3765C31.5018 13.4443 32.7222 12.5629 32.7222 10.8678Z" fill="white"/>
<path d="M45.8078 11.817C46.1468 13.1731 47.3672 13.8511 49.3334 13.8511C50.7572 13.8511 51.7742 13.4443 52.3844 12.6984H58.283C57.4694 16.2241 54.4862 17.9869 49.3334 17.9869C46.3502 17.9869 44.045 17.3767 42.4178 16.0885C40.8584 14.8681 40.1125 13.1052 40.1125 10.8678C40.1125 8.63043 40.8584 6.86763 42.4178 5.64722C43.9772 4.35902 46.2824 3.74882 49.3334 3.74882C52.3166 3.74882 54.6218 4.35902 56.249 5.64722C57.8084 6.86763 58.5542 8.63043 58.5542 10.8678C58.5542 11.0034 58.5542 11.139 58.5542 11.3424L58.4864 11.817H45.8078ZM49.3334 7.88463C47.5706 7.88463 46.418 8.42703 45.9434 9.51184H52.7234C52.2488 8.42703 51.0962 7.88463 49.3334 7.88463Z" fill="white"/>
<path d="M71.5039 3.74882C73.8091 3.74882 75.5719 4.35902 76.8601 5.57942C78.0805 6.73203 78.6229 8.42703 78.6229 10.5966V17.7157H73.1311V10.6644C73.1311 9.10504 71.9785 8.29143 69.6733 8.29143C67.3681 8.29143 66.2155 9.10504 66.2155 10.6644V17.7835H60.7236V4.02002H66.2155V5.57942C67.4359 4.35902 69.1987 3.74882 71.5039 3.74882Z" fill="white"/>
<path d="M16.7213 8.35923C17.0603 8.35923 17.3315 8.02023 17.1281 7.68123C16.7213 6.86763 16.1789 6.18963 15.5009 5.64722C13.9415 4.35902 11.6363 3.74882 8.58531 3.74882C5.60209 3.74882 3.29689 4.35902 1.66968 5.64722C0.991678 6.18963 0.449276 6.86763 0.0424743 7.68123C-0.0931262 8.02023 0.110275 8.35923 0.449276 8.35923H16.7213Z" fill="white"/>
<path d="M0.517148 13.4443C0.178146 13.4443 -0.0930547 13.7833 0.110346 14.1223C0.517148 14.9359 1.05955 15.6139 1.73755 16.1563C3.29696 17.4445 5.60217 18.0547 8.65318 18.0547C11.6364 18.0547 13.9416 17.4445 15.5688 16.1563C16.2468 15.6139 16.7892 14.9359 17.196 14.1223C17.3316 13.7833 17.1282 13.4443 16.7892 13.4443H0.517148Z" fill="white"/>
<path d="M80.9958 10.8678C80.9958 11.817 81.1314 12.6306 81.4026 13.3765H99.0307C99.3019 12.6306 99.4375 11.7492 99.4375 10.8678C99.4375 9.91864 99.3019 9.10504 99.0307 8.35923H81.4026C81.1314 9.10504 80.9958 9.98644 80.9958 10.8678Z" fill="white"/>
</svg>
