<svg width="26" height="32" viewBox="0 0 26 32" fill="none" xmlns="http://www.w3.org/2000/svg">
<path d="M26 12.6667C26 21.92 13 32 13 32C13 32 0 21.8667 0 12.6667C0 5.68 5.82947 0 13 0C20.1705 0 26 5.68 26 12.6667Z" fill="#5E30D8"/>
<path d="M20.7213 9.61042C21.0603 9.61042 21.3315 9.27142 21.1281 8.93241C20.7213 8.11881 20.1789 7.44081 19.5009 6.89841C17.9415 5.6102 15.6363 5 12.5853 5C9.60209 5 7.29689 5.6102 5.66968 6.89841C4.99168 7.44081 4.44928 8.11881 4.04247 8.93241C3.90687 9.27142 4.11027 9.61042 4.44928 9.61042H20.7213Z" fill="white"/>
<path d="M4.51715 14.6953C4.17815 14.6953 3.90695 15.0343 4.11035 15.3733C4.51715 16.1869 5.05955 16.8649 5.73755 17.4073C7.29696 18.6955 9.60217 19.3057 12.6532 19.3057C15.6364 19.3057 17.9416 18.6955 19.5688 17.4073C20.2468 16.8649 20.7892 16.1869 21.196 15.3733C21.3316 15.0343 21.1282 14.6953 20.7892 14.6953H4.51715Z" fill="white"/>
</svg>
